#N canvas 493 209 455 343 10;
#X obj 61 142 faccwrap~;
#X obj 61 109 *~ 0.3;
#X obj 61 188 snapshot~;
#X obj 133 172 bang~;
#X obj 64 211 hsl 136 16 -1 1 0 0 empty empty empty -2 -8 0 10 #fcfcfc #000000 #000000 0 1;
#X obj 231 189 snapshot~;
#X floatatom 231 211 7 0 0 0 - - - 0;
#X obj 231 142 faccwrap~ 0 12;
#X obj 61 56 bng 16 250 50 0 empty empty empty 0 -8 0 10 #fcfcfc #000000 #000000;
#X obj 231 56 bng 16 250 50 0 empty empty empty 0 -8 0 10 #fcfcfc #000000 #000000;
#N canvas 92 117 450 300 bng2imp~ 1;
#X obj 49 95 tabplay~ \$0-impulse;
#X obj 210 53 loadbang;
#X msg 210 74 0 1 0;
#X obj 210 95 array define \$0-impulse 2;
#X obj 49 53 inlet;
#X obj 49 116 outlet~;
#X obj 49 74 b;
#X connect 0 0 5 0;
#X connect 1 0 2 0;
#X connect 2 0 3 0;
#X connect 4 0 6 0;
#X connect 6 0 0 0;
#X restore 231 89 pd bng2imp~;
#N canvas 92 117 450 300 bng2imp~ 1;
#X obj 49 95 tabplay~ \$0-impulse;
#X obj 210 53 loadbang;
#X msg 210 74 0 1 0;
#X obj 210 95 array define \$0-impulse 2;
#X obj 49 53 inlet;
#X obj 49 116 outlet~;
#X obj 49 74 b;
#X connect 0 0 5 0;
#X connect 1 0 2 0;
#X connect 2 0 3 0;
#X connect 4 0 6 0;
#X connect 6 0 0 0;
#X restore 61 89 pd bng2imp~;
#X text 59 283 faccwrap~ is also handling multichannel input;
#X text 59 263 range defaults to -1..1;
#X text 325 143 range 0..12;
#X connect 0 0 2 0;
#X connect 1 0 0 0;
#X connect 2 0 4 0;
#X connect 3 0 2 0;
#X connect 5 0 6 0;
#X connect 7 0 5 0;
#X connect 8 0 11 0;
#X connect 9 0 10 0;
#X connect 10 0 7 0;
#X connect 11 0 1 0;
