#N canvas 673 148 716 524 10;
#X text 156 79 leak rate;
#X text 264 215 reset value;
#X obj 54 316 show~ -width 152 -scale 50;
#X obj 54 77 expr~ $v1 > 0.5;
#X obj 54 120 *~ 2;
#X obj 54 141 -~ 1;
#X obj 117 181 *~ 0.5;
#X msg 210 216 reset 0;
#X text 496 79 leak rate;
#X text 604 215 reset value;
#X obj 394 316 show~;
#X obj 394 77 expr~ $v1 > 0.5;
#X obj 394 120 *~ 2;
#X obj 394 141 -~ 1;
#X obj 394 206 snake~ in 2;
#X msg 550 216 reset 0;
#X obj 506 144 sig~ 0.01;
#X obj 506 165 snake~ in 2;
#X obj 457 182 *~ 0.5;
#X obj 571 144 sig~ 0.005;
#X obj 394 56 phasor~ 400;
#X obj 54 56 phasor~ 400;
#X obj 54 275 snake~ out;
#X obj 54 206 snake~ in 2;
#X obj 54 241 faccleak~ 0.03;
#X obj 171 180 rpole~ 0.97;
#X obj 54 295 snake~ in 3, f 20;
#X obj 394 241 faccleak~;
#X text 179 121 rpole~ provides the same functionality - but without mc support, f 27;
#X connect 3 0 4 0;
#X connect 4 0 5 0;
#X connect 5 0 6 0;
#X connect 5 0 23 0;
#X connect 5 0 25 0;
#X connect 6 0 23 1;
#X connect 7 0 24 0;
#X connect 11 0 12 0;
#X connect 12 0 13 0;
#X connect 13 0 14 0;
#X connect 13 0 18 0;
#X connect 14 0 27 0;
#X connect 15 0 27 0;
#X connect 16 0 17 0;
#X connect 17 0 27 1;
#X connect 18 0 14 1;
#X connect 19 0 17 1;
#X connect 20 0 11 0;
#X connect 21 0 3 0;
#X connect 22 0 26 0;
#X connect 22 1 26 1;
#X connect 23 0 24 0;
#X connect 24 0 22 0;
#X connect 25 0 26 2;
#X connect 26 0 2 0;
#X connect 27 0 10 0;
