#N canvas 642 -859 459 558 12;
#X obj 89 82 inlet~;
#X obj 90 424 outlet~;
#X obj 162 130 inlet~;
#X obj 162 82 loadbang;
#X obj 162 106 f \$1;
#N canvas 639 -866 491 569 @hv_obj 0;
#X obj 89 82 inlet~;
#X obj 182 82 inlet~;
#X obj 89 424 outlet~;
#X obj 89 193 -~;
#X obj 90 284 *~ 1e+37;
#X obj 90 259 clip~ 0 1e-37;
#X obj 90 332 +~ 1;
#X obj 90 308 *~ -1;
#X text 89 457 inspired by the heavylib objects: https://github.com/enzienaudio/heavylib;
#X connect 0 0 3 1;
#X connect 1 0 3 0;
#X connect 3 0 5 0;
#X connect 4 0 7 0;
#X connect 5 0 4 0;
#X connect 6 0 2 0;
#X connect 7 0 6 0;
#X restore 89 260 pd @hv_obj __gte~f;
#X text 228 260 will get replaced by heavy;
#X connect 0 0 5 0;
#X connect 2 0 5 1;
#X connect 3 0 4 0;
#X connect 4 0 2 0;
#X connect 5 0 1 0;
