#N canvas 0 37 459 558 12;
#X obj 89 82 inlet~;
#X obj 90 424 outlet~;
#X obj 162 130 inlet~;
#X obj 162 82 loadbang;
#X obj 162 106 f \$1;
#X text 218 260 will get replaced by heavy;
#N canvas 556 82 491 569 @hv_obj 1;
#X obj 89 82 inlet~;
#X obj 182 82 inlet~;
#X obj 89 424 outlet~;
#X text 89 457 inspired by the heavylib objects: https://github.com/enzienaudio/heavylib;
#X obj 89 193 -~;
#X obj 89 361 *~ 1e+37;
#X obj 89 259 clip~ 0 1e-37;
#X connect 0 0 4 1;
#X connect 1 0 4 0;
#X connect 4 0 6 0;
#X connect 5 0 2 0;
#X connect 6 0 5 0;
#X restore 89 260 pd @hv_obj __lt~f;
#X connect 0 0 6 0;
#X connect 2 0 6 1;
#X connect 3 0 4 0;
#X connect 4 0 2 0;
#X connect 6 0 1 0;
