#N canvas 630 150 1234 917 10;
#X obj 185 337 show~ -height 300 -width 800;
#X text 617 176 signalinlet_new(&x->x_obj \, 0.0f) \; // Coefficients signalinlet_new(&x->x_obj \, 0.0f) \; // Leak rate signalinlet_new(&x->x_obj \, x->lpf_max_freq) \; // LPF max frequency signalinlet_new(&x->x_obj \, x->lpf_lag_time) \; // LPF lag signalinlet_new(&x->x_obj \, x->gain) \; // Gain;
#X msg 165 99 1 -1 0.5 -0.5 1 -1 0.5 -0.5 1 -1 0.5 -0.5 1 -1 0.5 -0.5;
#X obj 165 125 snake~ in 16;
#X obj 178 143 sig~ 0.999;
#X obj 188 163 sig~ 20;
#X obj 1026 643 print;
#X obj 283 310 bng 16 250 50 0 empty empty empty 0 -8 0 10 #fcfcfc #000000 #000000;
#X obj 155 660 tanh~;
#X obj 155 702 dac~;
#X msg 227 210 debug;
#X obj 85 136 bng 16 250 50 0 empty empty empty 0 -8 0 10 #fcfcfc #000000 #000000;
#X obj 83 164 impulse~ 1;
#X obj 388 156 noise~;
#X obj 314 198 *~;
#X obj 364 178 tgl 16 0 empty empty empty 0 -8 0 10 #fcfcfc #000000 #000000 0 1;
#X floatatom 161 190 5 0 0 0 - - - 0;
#X msg 158 211 random \$1;
#X msg 316 310 pause \$1;
#X obj 316 289 tgl 16 0 empty empty empty 0 -8 0 10 #fcfcfc #000000 #000000 0 1;
#X msg 383 310 width 800 \, height 300;
#X msg 199 190 75;
#X obj 185 309 *~ 1;
#X obj 155 239 matrixfb~ 4;
#X obj 323 224 snake~ in 4;
#X obj 155 681 *~ 1;
#X obj 290 787 noise~;
#X obj 290 808 *~ 0.01;
#X obj 290 829 dac~;
#X connect 0 1 6 0;
#X connect 2 0 3 0;
#X connect 7 0 0 0;
#X connect 8 0 25 0;
#X connect 10 0 23 0;
#X connect 11 0 12 0;
#X connect 13 0 14 0;
#X connect 14 0 24 0;
#X connect 15 0 14 1;
#X connect 16 0 17 0;
#X connect 17 0 23 0;
#X connect 18 0 0 0;
#X connect 19 0 18 0;
#X connect 20 0 0 0;
#X connect 21 0 17 0;
#X connect 22 0 0 0;
#X connect 23 0 8 0;
#X connect 23 0 22 0;
#X connect 24 0 23 0;
#X connect 25 0 9 0;
#X connect 26 0 27 0;
#X connect 27 0 28 0;
