#N canvas 331 88 450 300 10;
#X obj 61 51 inlet~;
#X obj 61 93 *~ 2;
#X obj 61 114 -~ 1;
#X obj 61 185 outlet~;
#X obj 61 150 *~;
#X obj 61 72 gt~;
#X connect 0 0 4 1;
#X connect 0 0 5 0;
#X connect 1 0 2 0;
#X connect 2 0 4 0;
#X connect 4 0 3 0;
#X connect 5 0 1 0;
