#N canvas 639 117 698 801 10;
#X text 74 345 parameters;
#X text 74 365 -n to normalize;
#X text 74 385 -c to set to cyclic mode;
#X obj 51 128 loadbang;
#X msg 204 164 cyclic \$1;
#X obj 204 141 tgl 16 0 empty empty empty 0 -8 0 10 #fcfcfc #000000 #000000 0 1;
#X obj 205 61 tgl 16 0 empty empty empty 0 -8 0 10 #fcfcfc #000000 #000000 0 1;
#X msg 205 84 normalize \$1;
#X obj 51 584 snapshot~;
#X text 74 405 <list of float> for initial kernel;
#X text 300 163 cyclic: wraps around channel boundaries;
#X text 300 138 non-cyclic (default): edge channels use repeated edge values, f 40;
#X text 300 83 normalize kernel to sum of 1 (off by default);
#X obj 51 615 vsl 32 32 0 1 0 0 empty empty empty 0 -9 0 10 #fcfcfc #000000 #000000 0 1;
#X obj 111 584 snapshot~;
#X obj 171 584 snapshot~;
#X obj 231 584 snapshot~;
#X obj 51 312 mc_conv2d~ -n;
#X obj 51 187 snake~ in 9;
#X obj 51 453 snake~ out 9, f 80;
#X obj 599 568 bang~;
#X obj 291 584 snapshot~;
#X obj 351 584 snapshot~;
#X obj 411 584 snapshot~;
#X obj 471 584 snapshot~;
#X obj 531 584 snapshot~;
#X text 139 313 <-- also accepts signal kernel input;
#X obj 101 615 vsl 32 32 0 1 0 0 empty empty empty 0 -9 0 10 #fcfcfc #000000 #000000 0 1;
#X obj 151 615 vsl 32 32 0 1 0 0 empty empty empty 0 -9 0 10 #fcfcfc #000000 #000000 0 1;
#X obj 51 662 vsl 32 32 0 1 0 0 empty empty empty 0 -9 0 10 #fcfcfc #000000 #000000 0 1;
#X obj 101 662 vsl 32 32 0 1 0 0 empty empty empty 0 -9 0 10 #fcfcfc #000000 #000000 0 1;
#X obj 151 662 vsl 32 32 0 1 0 0 empty empty empty 0 -9 0 10 #fcfcfc #000000 #000000 0 1;
#X obj 51 709 vsl 32 32 0 1 0 0 empty empty empty 0 -9 0 10 #fcfcfc #000000 #000000 0 1;
#X obj 101 709 vsl 32 32 0 1 0 0 empty empty empty 0 -9 0 10 #fcfcfc #000000 #000000 0 1;
#X obj 151 709 vsl 32 32 0 1 0 0 empty empty empty 0 -9 0 10 #fcfcfc #000000 #000000 0 1;
#X msg 200 224 kernel 1;
#X msg 51 166 1 0.5 0 0.5 0 0 0 0 0;
#X msg 201 254 kernel 0.1 0.2 0.1 0.2 0.4 0.2 0.1 0.2 0.1;
#X connect 3 0 36 0;
#X connect 4 0 17 0;
#X connect 5 0 4 0;
#X connect 6 0 7 0;
#X connect 7 0 17 0;
#X connect 8 0 13 0;
#X connect 14 0 27 0;
#X connect 15 0 28 0;
#X connect 16 0 29 0;
#X connect 17 0 19 0;
#X connect 18 0 17 0;
#X connect 19 0 8 0;
#X connect 19 1 14 0;
#X connect 19 2 15 0;
#X connect 19 3 16 0;
#X connect 19 4 21 0;
#X connect 19 5 22 0;
#X connect 19 6 23 0;
#X connect 19 7 24 0;
#X connect 19 8 25 0;
#X connect 20 0 8 0;
#X connect 20 0 25 0;
#X connect 20 0 24 0;
#X connect 20 0 23 0;
#X connect 20 0 22 0;
#X connect 20 0 21 0;
#X connect 20 0 16 0;
#X connect 20 0 15 0;
#X connect 20 0 14 0;
#X connect 21 0 30 0;
#X connect 22 0 31 0;
#X connect 23 0 32 0;
#X connect 24 0 33 0;
#X connect 25 0 34 0;
#X connect 35 0 17 0;
#X connect 36 0 18 0;
#X connect 37 0 17 0;
