#N canvas 334 117 450 300 10;
#X obj 62 52 inlet~;
#X obj 167 30 loadbang;
#X obj 212 78 f \$1;
#X msg 212 99 resize \$1;
#X obj 167 51 t b b;
#X obj 167 78 f \$2;
#X obj 167 99 inlet~;
#X obj 62 224 outlet~;
#X obj 62 173 clone -d hip~.cl 1;
#X connect 0 0 8 0;
#X connect 1 0 4 0;
#X connect 2 0 3 0;
#X connect 3 0 8 0;
#X connect 4 0 5 0;
#X connect 4 1 2 0;
#X connect 5 0 6 0;
#X connect 6 0 8 1;
#X connect 8 0 7 0;
