#N canvas 666 189 654 459 10;
#X obj 277 187 tabsend~ signal;
#N canvas 0 22 450 278 (subpatch) 0;
#X array signal 64 float 0;
#X coords 0 1 63 -1 128 64 1 0 0;
#X restore 455 95 graph;
#N canvas 0 22 450 278 (subpatch) 0;
#X array signal_fft 64 float 0;
#X coords 0 1 63 -1 128 64 1 0 0;
#X restore 455 308 graph;
#X obj 277 81 loadbang;
#X obj 277 102 bng 16 250 50 0 empty empty empty 0 -8 0 10 #fcfcfc #000000 #000000;
#X obj 277 123 samplerate~;
#X obj 277 165 osc~;
#X obj 282 297 tabreceive~ signal;
#X obj 282 359 tabsend~ signal_fft;
#X obj 70 108 snake~ in 64;
#X obj 70 55 bng 16 250 50 0 empty empty empty 0 -8 0 10 #fcfcfc #000000 #000000;
#N canvas 0 22 450 278 (subpatch) 0;
#X array signal_fft_mc 64 float 0;
#X coords 0 1 63 -1 128 64 1 0 0;
#X restore 70 312 graph;
#X obj 70 223 mc2array 64 signal_fft_mc;
#X text 92 54 <-- bang here;
#X obj 282 318 ifft~;
#X obj 70 171 mc_ifft~;
#X obj 70 86 array get signal;
#X obj 70 197 /~ 64;
#X obj 282 339 /~ 64;
#X obj 277 144 / 64;
#X connect 3 0 4 0;
#X connect 4 0 5 0;
#X connect 5 0 19 0;
#X connect 6 0 0 0;
#X connect 7 0 14 0;
#X connect 9 0 15 0;
#X connect 10 0 16 0;
#X connect 14 0 18 0;
#X connect 15 0 17 0;
#X connect 16 0 9 0;
#X connect 17 0 12 0;
#X connect 18 0 8 0;
#X connect 19 0 6 0;
