#N canvas 801 105 673 815 10;
#X obj 95 400 mc_route~;
#X obj 95 462 snapshot~;
#X obj 125 482 snapshot~;
#X obj 159 502 snapshot~;
#X obj 202 521 snapshot~;
#X floatatom 90 598 5 0 0 0 - - - 0;
#X floatatom 130 598 5 0 0 0 - - - 0;
#X floatatom 170 598 5 0 0 0 - - - 0;
#X floatatom 210 598 5 0 0 0 - - - 0;
#X obj 373 440 bang~;
#X obj 90 618 vsl 16 136 -1 1 0 0 empty empty empty 0 -9 0 10 #fcfcfc #000000 #000000 0 1;
#X obj 130 618 vsl 16 136 -1 1 0 0 empty empty empty 0 -9 0 10 #fcfcfc #000000 #000000 0 1;
#X obj 170 618 vsl 16 136 -1 1 0 0 empty empty empty 0 -9 0 10 #fcfcfc #000000 #000000 0 1;
#X obj 210 618 vsl 16 136 -1 1 0 0 empty empty empty 0 -9 0 10 #fcfcfc #000000 #000000 0 1;
#X obj 97 424 snake~ out 6, f 32;
#X obj 251 541 snapshot~;
#X obj 293 563 snapshot~;
#X floatatom 250 598 5 0 0 0 - - - 0;
#X obj 250 618 vsl 16 136 -1 1 0 0 empty empty empty 0 -9 0 10 #fcfcfc #000000 #000000 0 1;
#X floatatom 290 598 5 0 0 0 - - - 0;
#X obj 290 618 vsl 16 136 -1 1 0 0 empty empty empty 0 -9 0 10 #fcfcfc #000000 #000000 0 1;
#X obj 67 54 osc~ 0.1;
#X obj 182 55 osc~ 3;
#X obj 229 53 osc~ 10;
#X obj 127 54 osc~ 0.5;
#X obj 93 131 snake~ in 6, f 32;
#X obj 280 54 sig~ 1;
#X obj 320 54 sig~ -1;
#X obj 384 129 snake~ in 6, f 32;
#X msg 385 108 0.1 0.2 0.3 0.4 0.5 0.6;
#X msg 480 244 1 2 3;
#X obj 477 285 snake~ in 3, f 13;
#X obj 94 266 *~ 1;
#X obj 239 265 *~ 0;
#X obj 169 206 tgl 16 0 empty empty empty 0 -8 0 10 #fcfcfc #000000 #000000 0 1;
#X obj 259 244 == 0;
#X connect 0 0 14 0;
#X connect 1 0 5 0;
#X connect 2 0 6 0;
#X connect 3 0 7 0;
#X connect 4 0 8 0;
#X connect 5 0 10 0;
#X connect 6 0 11 0;
#X connect 7 0 12 0;
#X connect 8 0 13 0;
#X connect 9 0 4 0;
#X connect 9 0 3 0;
#X connect 9 0 2 0;
#X connect 9 0 1 0;
#X connect 9 0 15 0;
#X connect 9 0 16 0;
#X connect 14 0 1 0;
#X connect 14 1 2 0;
#X connect 14 2 3 0;
#X connect 14 3 4 0;
#X connect 14 4 15 0;
#X connect 14 5 16 0;
#X connect 15 0 17 0;
#X connect 16 0 19 0;
#X connect 17 0 18 0;
#X connect 19 0 20 0;
#X connect 21 0 25 0;
#X connect 22 0 25 2;
#X connect 23 0 25 3;
#X connect 24 0 25 1;
#X connect 25 0 32 0;
#X connect 26 0 25 4;
#X connect 27 0 25 5;
#X connect 28 0 33 0;
#X connect 29 0 28 0;
#X connect 30 0 31 0;
#X connect 31 0 0 1;
#X connect 32 0 0 0;
#X connect 33 0 0 0;
#X connect 34 0 35 0;
#X connect 34 0 32 1;
#X connect 35 0 33 1;
