#N canvas 695 282 777 692 10;
#X obj 118 87 bng 16 250 50 0 empty empty empty 0 -8 0 10 #fcfcfc #000000 #000000;
#X floatatom 55 126 5 0 0 0 - - - 0;
#X msg 55 154 seed \$1;
#X obj 55 175 noisen~;
#X obj 118 175 tgl 16 0 empty empty empty 0 -8 0 10 #fcfcfc #000000 #000000 0 1;
#X obj 55 236 snapshot~;
#N canvas 0 22 450 278 (subpatch) 0;
#X array \$0-vis 401 float 2;
#X coords 0 399 401 0 401 400 1 0 0;
#X restore 282 57 graph;
#X obj 55 344 + 200;
#X obj 55 449 tabread \$0-vis;
#X obj 55 470 + 1;
#X obj 55 424 t f f;
#X obj 55 491 tabwrite \$0-vis;
#X msg 118 154 1;
#X msg 174 154 const 0;
#X obj 174 175 s \$0-vis;
#X obj 188 470 noisen~;
#X obj 188 491 print~;
#X msg 188 449 seed \$1;
#X obj 122 237 hsl 136 16 1 200 1 0 empty empty empty -2 -8 0 10 #fcfcfc #000000 #000000 0 1;
#X floatatom 119 258 5 0 0 0 - - - 0;
#X obj 55 365 moses 0;
#X obj 55 403 moses 401;
#X obj 188 407 t b b;
#X floatatom 188 428 5 0 0 0 - - - 0;
#X obj 188 385 bng 16 250 50 0 empty empty empty 0 -8 0 10 #fcfcfc #000000 #000000;
#X obj 118 196 metro 0.5;
#X text 55 33 normal distributed noise~;
#X obj 55 273 * 200;
#X obj 55 309 * 0.31831;
#X text 119 308 / pi;
#X text 66 536 FIXME: division by PI doesn't really make sense ... ?;
#X connect 0 0 1 0;
#X connect 0 0 12 0;
#X connect 0 0 13 0;
#X connect 1 0 2 0;
#X connect 2 0 3 0;
#X connect 3 0 5 0;
#X connect 4 0 25 0;
#X connect 5 0 27 0;
#X connect 7 0 20 0;
#X connect 8 0 9 0;
#X connect 9 0 11 0;
#X connect 10 0 8 0;
#X connect 10 1 11 1;
#X connect 12 0 4 0;
#X connect 13 0 14 0;
#X connect 15 0 16 0;
#X connect 17 0 15 0;
#X connect 18 0 19 0;
#X connect 19 0 27 1;
#X connect 20 1 21 0;
#X connect 21 0 10 0;
#X connect 22 0 23 0;
#X connect 22 1 16 0;
#X connect 23 0 17 0;
#X connect 24 0 22 0;
#X connect 25 0 5 0;
#X connect 27 0 28 0;
#X connect 28 0 7 0;
