#N canvas 549 83 264 321 10;
#X obj 62 52 inlet~;
#X obj 62 107 snake~ out 4, f 18;
#X obj 62 201 snake~ in 4, f 18;
#X obj 62 248 outlet~;
#X obj 97 153 *~ -1;
#X obj 132 153 *~ -1;
#X obj 167 153 *~ -1;
#X connect 0 0 1 0;
#X connect 1 0 2 0;
#X connect 1 1 4 0;
#X connect 1 2 5 0;
#X connect 1 3 6 0;
#X connect 2 0 3 0;
#X connect 4 0 2 1;
#X connect 5 0 2 2;
#X connect 6 0 2 3;
