#N canvas 704 206 827 507 10;
#X obj 65 133 snake~ in 4;
#X obj 155 133 snake~ in 4;
#X obj 65 262 snake~ out 4, f 30;
#X obj 308 277 bang~;
#X obj 65 293 snapshot~;
#X obj 125 293 snapshot~;
#X obj 185 293 snapshot~;
#X obj 245 293 snapshot~;
#X floatatom 65 314 5 0 0 0 - - - 0;
#X floatatom 125 314 5 0 0 0 - - - 0;
#X floatatom 185 314 5 0 0 0 - - - 0;
#X floatatom 245 314 5 0 0 0 - - - 0;
#X obj 65 334 vsl 16 136 -1 1 0 0 empty empty empty 0 -9 0 10 #fcfcfc #000000 #000000 0 1;
#X obj 125 333 vsl 16 136 -1 1 0 0 empty empty empty 0 -9 0 10 #fcfcfc #000000 #000000 0 1;
#X obj 185 334 vsl 16 136 -1 1 0 0 empty empty empty 0 -9 0 10 #fcfcfc #000000 #000000 0 1;
#X obj 245 333 vsl 16 136 -1 1 0 0 empty empty empty 0 -9 0 10 #fcfcfc #000000 #000000 0 1;
#X obj 155 56 osc~ 0.1;
#X obj 215 56 osc~ 0.2;
#X obj 275 56 osc~ 0.3;
#X obj 335 56 osc~ 0.4;
#X obj 65 56 loadbang;
#X msg 65 77 0.707 0 0.707 0;
#X obj 425 262 snake~ out 4, f 30;
#X obj 668 277 bang~;
#X obj 425 293 snapshot~;
#X obj 485 293 snapshot~;
#X obj 545 293 snapshot~;
#X obj 605 293 snapshot~;
#X floatatom 425 314 5 0 0 0 - - - 0;
#X floatatom 485 314 5 0 0 0 - - - 0;
#X floatatom 545 314 5 0 0 0 - - - 0;
#X floatatom 605 314 5 0 0 0 - - - 0;
#X obj 425 334 vsl 16 136 -1 1 0 0 empty empty empty 0 -9 0 10 #fcfcfc #000000 #000000 0 1;
#X obj 485 333 vsl 16 136 -1 1 0 0 empty empty empty 0 -9 0 10 #fcfcfc #000000 #000000 0 1;
#X obj 545 334 vsl 16 136 -1 1 0 0 empty empty empty 0 -9 0 10 #fcfcfc #000000 #000000 0 1;
#X obj 605 333 vsl 16 136 -1 1 0 0 empty empty empty 0 -9 0 10 #fcfcfc #000000 #000000 0 1;
#X obj 425 226 qmul~ 1 0 0 0;
#X obj 65 226 qdiv~ 1 0 0 0;
#X obj 500 204 qinv~;
#X text 417 136 division is similar to multiplication with inverse quaternion, f 39;
#X connect 0 0 37 0;
#X connect 0 0 36 0;
#X connect 1 0 37 1;
#X connect 1 0 38 0;
#X connect 2 0 4 0;
#X connect 2 1 5 0;
#X connect 2 2 6 0;
#X connect 2 3 7 0;
#X connect 3 0 7 0;
#X connect 3 0 6 0;
#X connect 3 0 5 0;
#X connect 3 0 4 0;
#X connect 4 0 8 0;
#X connect 5 0 9 0;
#X connect 6 0 10 0;
#X connect 7 0 11 0;
#X connect 8 0 12 0;
#X connect 9 0 13 0;
#X connect 10 0 14 0;
#X connect 11 0 15 0;
#X connect 16 0 1 0;
#X connect 17 0 1 1;
#X connect 18 0 1 2;
#X connect 19 0 1 3;
#X connect 20 0 21 0;
#X connect 21 0 0 0;
#X connect 22 0 24 0;
#X connect 22 1 25 0;
#X connect 22 2 26 0;
#X connect 22 3 27 0;
#X connect 23 0 27 0;
#X connect 23 0 26 0;
#X connect 23 0 25 0;
#X connect 23 0 24 0;
#X connect 24 0 28 0;
#X connect 25 0 29 0;
#X connect 26 0 30 0;
#X connect 27 0 31 0;
#X connect 28 0 32 0;
#X connect 29 0 33 0;
#X connect 30 0 34 0;
#X connect 31 0 35 0;
#X connect 36 0 22 0;
#X connect 37 0 2 0;
#X connect 38 0 36 1;
