#N canvas 704 206 455 507 10;
#X obj 65 133 snake~ in 4;
#X obj 155 133 snake~ in 4;
#X obj 65 262 snake~ out 4, f 30;
#X obj 308 277 bang~;
#X obj 65 293 snapshot~;
#X obj 125 293 snapshot~;
#X obj 185 293 snapshot~;
#X obj 245 293 snapshot~;
#X floatatom 65 314 5 0 0 0 - - - 0;
#X floatatom 125 314 5 0 0 0 - - - 0;
#X floatatom 185 314 5 0 0 0 - - - 0;
#X floatatom 245 314 5 0 0 0 - - - 0;
#X obj 65 334 vsl 16 136 -1 1 0 0 empty empty empty 0 -9 0 10 #fcfcfc #000000 #000000 0 1;
#X obj 125 333 vsl 16 136 -1 1 0 0 empty empty empty 0 -9 0 10 #fcfcfc #000000 #000000 0 1;
#X obj 185 334 vsl 16 136 -1 1 0 0 empty empty empty 0 -9 0 10 #fcfcfc #000000 #000000 0 1;
#X obj 245 333 vsl 16 136 -1 1 0 0 empty empty empty 0 -9 0 10 #fcfcfc #000000 #000000 0 1;
#X obj 155 56 osc~ 0.1;
#X obj 215 56 osc~ 0.2;
#X obj 275 56 osc~ 0.3;
#X obj 335 56 osc~ 0.4;
#X obj 65 56 loadbang;
#X obj 65 226 qmul~ 1 0 0 0;
#X obj 176 170 tgl 16 0 empty empty empty 0 -8 0 10 #fcfcfc #000000 #000000 0 1;
#X obj 155 195 *~ 1;
#X msg 65 77 0.707 0 0.707 0;
#X connect 0 0 21 0;
#X connect 1 0 23 0;
#X connect 2 0 4 0;
#X connect 2 1 5 0;
#X connect 2 2 6 0;
#X connect 2 3 7 0;
#X connect 3 0 7 0;
#X connect 3 0 6 0;
#X connect 3 0 5 0;
#X connect 3 0 4 0;
#X connect 4 0 8 0;
#X connect 5 0 9 0;
#X connect 6 0 10 0;
#X connect 7 0 11 0;
#X connect 8 0 12 0;
#X connect 9 0 13 0;
#X connect 10 0 14 0;
#X connect 11 0 15 0;
#X connect 16 0 1 0;
#X connect 17 0 1 1;
#X connect 18 0 1 2;
#X connect 19 0 1 3;
#X connect 20 0 24 0;
#X connect 21 0 2 0;
#X connect 22 0 23 1;
#X connect 23 0 21 1;
#X connect 24 0 0 0;
