#N canvas 666 486 222 215 10;
#X obj 61 43 inlet~;
#X obj 61 145 outlet~;
#X obj 76 90 rsqrt~;
#X obj 61 112 *~;
#X obj 76 69 qnorm~;
#X connect 0 0 3 0;
#X connect 0 0 4 0;
#X connect 2 0 3 1;
#X connect 3 0 1 0;
#X connect 4 0 2 0;
