#N canvas 374 337 481 262 10;
#X obj 61 51 inlet~;
#X obj 61 111 snake~ out 4;
#X obj 61 156 outlet~;
#X obj 61 90 pow~ 2;
#X connect 0 0 3 0;
#X connect 1 0 2 0;
#X connect 1 1 2 0;
#X connect 1 2 2 0;
#X connect 1 3 2 0;
#X connect 3 0 1 0;
