#N canvas 912 554 873 584 10;
#X text 53 50 randomwalk_sphere~ - random walk on a spherical surface;
#X text 53 100 Creation arguments:;
#X text 433 120 offset <float> - for offset to add to angle on surface;
#X text 433 140 seed <float> - set seed for random values;
#X obj 436 312 show~ -width 320 -height 200 -interval 13.3298;
#X obj 56 312 show~ -width 320 -height 200 -interval 13.3298;
#X text 53 120 stepsize angle in turns (0..1) \, default: 0.0001;
#X text 53 140 angle range on surface in turns (0..0.5) \, default: 0.5;
#X obj 56 291 randomwalk_sphere~ 0.01;
#X obj 56 189 tgl 16 0 empty empty empty 0 -8 0 10 #fcfcfc #000000 #000000 0 1;
#X msg 56 231 reset \, seed 0;
#X obj 56 210 metro 20;
#X obj 436 291 randomwalk_sphere~ 0.001 0.5;
#X text 433 100 Messages:;
#X text 433 160 reset (<x \, y \, z>) - reset position (to init or given coordinate), f 64;
#X connect 8 0 5 0;
#X connect 9 0 11 0;
#X connect 10 0 8 0;
#X connect 11 0 10 0;
#X connect 12 0 4 0;
