#N canvas 616 286 559 416 10;
#X obj 49 191 show~;
#X obj 121 98 hsl 136 16 0 127 0 0 empty empty empty -2 -8 0 10 #fcfcfc #000000 #000000 0 1;
#X obj 49 50 osc~ 800;
#X obj 118 140 mc_lop~ 2 1;
#X obj 285 191 show~;
#X obj 333 98 hsl 136 16 0 127 0 0 empty empty empty -2 -8 0 10 #fcfcfc #000000 #000000 0 1;
#X obj 285 50 osc~ 800;
#X obj 285 140 snake~;
#X obj 318 77 osc~ 1600;
#X obj 330 140 lop~ 1;
#X obj 118 119 snake~;
#X obj 285 161 sampdel~;
#X obj 49 161 sampdel~ 127;
#X connect 1 0 10 0;
#X connect 2 0 12 0;
#X connect 3 0 12 1;
#X connect 5 0 9 0;
#X connect 6 0 7 0;
#X connect 7 0 11 0;
#X connect 8 0 7 1;
#X connect 9 0 11 1;
#X connect 10 0 3 0;
#X connect 11 0 4 0;
#X connect 12 0 0 0;
