#N canvas 672 232 896 624 10;
#N canvas 63 229 1132 803 (subpatch) 0;
#X array array 96000 float 0;
#X coords 0 1 95999 -1 448 140 1 0 0;
#X restore 62 49 graph;
#X obj 474 334 adc~;
#X obj 70 437 dac~;
#X obj 227 343 hsl 136 16 0 96000 0 0 empty empty empty -2 -8 0 10 #fcfcfc #000000 #000000 0 1;
#X obj 168 314 hsl 136 16 0 96000 0 0 empty empty empty -2 -8 0 10 #fcfcfc #000000 #000000 0 1;
#X obj 70 367 *~;
#X obj 85 345 tgl 16 0 empty empty empty 0 -8 0 10 #fcfcfc #000000 #000000 0 1;
#X msg 121 211 0;
#X obj 166 338 lop~ 1;
#X msg 621 37 normalize;
#X obj 621 58 s array;
#X obj 224 365 lop~ 1;
#X obj 155 293 *~;
#X obj 316 232 hsl 136 16 0 1 0 0 empty empty empty -2 -8 0 10 #fcfcfc #000000 #000000 0 1;
#X obj 313 253 lop~ 1;
#X msg 690 37 const 0;
#X obj 70 313 *~ 96000;
#X obj 70 233 phasor~ 0.5;
#X obj 555 114 hsl 136 16 0.1 2.5 1 0 empty empty empty -2 -8 0 10 #fcfcfc #000000 #000000 0 1;
#X floatatom 552 135 5 0 0 0 - - - 0;
#X obj 474 363 hip~ 10;
#X obj 70 457 show~ -width 400 -height 0;
#X obj 552 281 *~ 96000;
#X obj 552 156 lop~ 1;
#X msg 552 77 0.5;
#X obj 71 400 tabloop~ array;
#X obj 682 249 tgl 16 0 empty empty empty 0 -8 0 10 #fcfcfc #000000 #000000 0 1;
#X obj 736 250 tgl 16 0 empty empty empty 0 -8 0 10 #fcfcfc #000000 #000000 0 1;
#X obj 183 433 snake~ in;
#X obj 552 201 phasor~;
#X msg 682 270 add \$1;
#X msg 736 272 loop \$1;
#X obj 505 439 *~;
#X obj 534 367 tgl 16 0 empty empty empty 0 -8 0 10 #fcfcfc #000000 #000000 0 1;
#X obj 534 388 lop~ 1;
#X msg 592 77 0.25;
#X obj 679 370 spiral~ 0.5 1 0.03 768;
#X obj 679 391 simplex~ -s 7 1 0.4;
#X obj 679 419 +~ 0.6;
#X obj 679 447 clip~ 0 1;
#X obj 660 481 *~;
#X obj 744 443 tgl 16 0 empty empty empty 0 -8 0 10 #fcfcfc #000000 #000000 0 1;
#X msg 622 81 1;
#X obj 156 253 simplex~ -s 5 2 0.4;
#X obj 154 232 spiral~ 0.5 1 0.01 768;
#X msg 363 398 scale 1;
#X msg 660 77 -0.1;
#X msg 703 74 -1;
#X obj 241 403 spatial/control~ 1;
#X obj 536 515 tabsmear~ array;
#X connect 1 0 20 0;
#X connect 3 0 11 0;
#X connect 4 0 8 0;
#X connect 5 0 25 0;
#X connect 6 0 5 1;
#X connect 7 0 17 1;
#X connect 8 0 25 1;
#X connect 9 0 10 0;
#X connect 11 0 25 2;
#X connect 12 0 16 0;
#X connect 12 0 28 0;
#X connect 13 0 14 0;
#X connect 14 0 12 1;
#X connect 15 0 10 0;
#X connect 16 0 5 0;
#X connect 17 0 16 0;
#X connect 18 0 19 0;
#X connect 19 0 23 0;
#X connect 20 0 32 0;
#X connect 22 0 49 1;
#X connect 23 0 29 0;
#X connect 24 0 18 0;
#X connect 25 0 2 0;
#X connect 25 0 2 1;
#X connect 25 0 48 0;
#X connect 26 0 30 0;
#X connect 27 0 31 0;
#X connect 28 0 21 0;
#X connect 29 0 22 0;
#X connect 30 0 49 0;
#X connect 31 0 49 0;
#X connect 32 0 49 0;
#X connect 33 0 34 0;
#X connect 34 0 32 1;
#X connect 35 0 18 0;
#X connect 36 0 37 0;
#X connect 37 0 38 0;
#X connect 38 0 39 0;
#X connect 39 0 28 1;
#X connect 39 0 40 0;
#X connect 40 0 49 2;
#X connect 41 0 40 1;
#X connect 42 0 18 0;
#X connect 43 0 12 0;
#X connect 44 0 43 0;
#X connect 45 0 21 0;
#X connect 46 0 18 0;
#X connect 47 0 18 0;
