#N canvas 806 77 980 987 10;
#X obj 92 139 adc~;
#X obj 357 141 bng 16 250 50 0 empty empty empty 0 -8 0 10 #fcfcfc #000000 #000000;
#X obj 357 187 tabplay~ recording;
#X obj 150 107 hsl 136 16 0.01 1 1 0 empty empty empty -2 -8 0 10 #fcfcfc #000000 #000000 0 1;
#X msg 654 234 const 0;
#X obj 654 255 s recording;
#X obj 48 50 hsl 800 16 0 240000 0 0 empty empty empty -2 -8 0 10 #fcfcfc #000000 #000000 0 1;
#X obj 45 70 lop~ 3;
#X obj 43 209 tgl 16 0 empty empty empty 0 -8 0 10 #fcfcfc #000000 #000000 0 1;
#X obj 357 230 tanh~;
#X obj 357 295 dac~;
#X obj 42 492 show~ -width 800 -height 400;
#X msg 44 316 width 800 \, height 400;
#X floatatom 147 161 5 0 0 0 - - - 0;
#X obj 92 161 *~ 10;
#N canvas 113 449 1512 684 recording 0;
#N canvas 179 204 450 278 (subpatch) 0;
#X array recording 48000 float 0;
#X coords 0 1 47999 -1 1024 320 1 0 0;
#X restore 102 -1 graph;
#X restore 739 255 pd recording;
#X obj 147 230 *~;
#X obj 229 169 tgl 16 0 empty empty empty 0 -8 0 10 #fcfcfc #000000 #000000 0 1;
#X obj 229 190 lop~ 1;
#X obj 147 183 phasor~;
#X obj 357 209 hip~ 20;
#X obj 286 193 *~;
#X obj 307 170 tgl 16 0 empty empty empty 0 -8 0 10 #fcfcfc #000000 #000000 0 1;
#X obj 508 94 tgl 16 0 empty empty empty 0 -8 0 10 #fcfcfc #000000 #000000 0 1;
#X obj 508 115 metro 40;
#X obj 511 141 tabredraw recording;
#X obj 92 287 tabsmear~ recording;
#X obj 357 253 spatial/control~ 1 4;
#X obj 147 205 *~ 48000;
#X msg 235 132 1;
#X msg 205 131 0.5;
#X msg 267 132 2;
#X msg 305 132 2.01;
#X obj 207 243 *~ 0.5;
#X obj 207 264 +~ 0.5;
#X obj 199 361 snake~ in 4;
#X msg 43 231 add \$1 \, loop \$1;
#X msg 587 380 dsp \$1;
#X obj 587 401 s pd;
#X obj 586 348 tgl 16 0 empty empty empty 0 -8 0 10 #fcfcfc #000000 #000000 0 1;
#X obj 206 222 osc~ 3;
#X obj 23 263 osc~;
#X obj 8 179 *~ 800;
#X obj 8 158 osc~ 78;
#X msg 164 132 0.051;
#X connect 0 0 14 0;
#X connect 0 0 21 0;
#X connect 1 0 2 0;
#X connect 2 0 20 0;
#X connect 2 0 35 3;
#X connect 2 1 1 0;
#X connect 3 0 13 0;
#X connect 4 0 5 0;
#X connect 6 0 7 0;
#X connect 7 0 26 1;
#X connect 8 0 36 0;
#X connect 9 0 27 0;
#X connect 12 0 11 0;
#X connect 13 0 19 0;
#X connect 16 0 26 1;
#X connect 17 0 18 0;
#X connect 18 0 16 1;
#X connect 19 0 28 0;
#X connect 19 0 35 1;
#X connect 20 0 9 0;
#X connect 21 0 27 0;
#X connect 22 0 21 1;
#X connect 23 0 24 0;
#X connect 24 0 25 0;
#X connect 27 0 10 0;
#X connect 27 0 10 1;
#X connect 28 0 16 0;
#X connect 29 0 13 0;
#X connect 30 0 13 0;
#X connect 31 0 13 0;
#X connect 32 0 13 0;
#X connect 33 0 34 0;
#X connect 34 0 26 2;
#X connect 34 0 35 2;
#X connect 35 0 11 0;
#X connect 36 0 26 0;
#X connect 37 0 38 0;
#X connect 39 0 37 0;
#X connect 40 0 33 0;
#X connect 41 0 26 0;
#X connect 41 0 35 0;
#X connect 42 0 41 0;
#X connect 43 0 42 0;
#X connect 44 0 13 0;
