#N canvas 254 82 524 354 12;
#X obj 51 50 inlet~;
#X obj 51 91 clip~ -3 3;
#X obj 69 131 *~;
#X obj 51 281 outlet~;
#X obj 127 131 sig~ 27;
#X obj 69 174 +~;
#X obj 69 217 /~;
#X obj 51 241 *~;
#X obj 109 174 *~ 9;
#X obj 109 198 +~;
#X text 153 193 // http://www.musicdsp.org/showone.php?id=238;
#X text 153 214 // y = x * (27 + x^2) / (27 + 9*x^2);
#X text 153 172 // pade-approximation of tanh function;
#X connect 0 0 1 0;
#X connect 1 0 2 0;
#X connect 1 0 2 1;
#X connect 1 0 7 0;
#X connect 2 0 5 0;
#X connect 2 0 8 0;
#X connect 4 0 5 1;
#X connect 4 0 9 1;
#X connect 5 0 6 0;
#X connect 6 0 7 1;
#X connect 7 0 3 0;
#X connect 8 0 9 0;
#X connect 9 0 6 1;
