#N canvas 237 262 915 883 10;
#X obj 345 141 until;
#X obj 345 162 f;
#X obj 372 162 + 1;
#X obj 345 274 text get \$0-tetra;
#X msg 486 253 0;
#X obj 486 274 text get \$0-tetra;
#X obj 345 295 unpack f f f;
#X obj 486 295 unpack f f f;
#X obj 345 346 -;
#X obj 379 346 -;
#X obj 414 346 -;
#X obj 487 346 pow 2;
#X obj 527 346 pow 2;
#X obj 567 346 pow 2;
#X obj 627 346 pow 2;
#X obj 667 346 pow 2;
#X obj 707 346 pow 2;
#X text 652 387 p0_sq;
#X obj 627 367 +;
#X obj 627 388 +;
#X text 513 387 pi_sq;
#X obj 487 367 +;
#X obj 487 388 +;
#X obj 345 367 * 2;
#X obj 379 367 * 2;
#X obj 414 367 * 2;
#X obj 806 367 pow 2;
#X obj 328 36 inlet;
#X obj 779 324 list split 1;
#X obj 345 388 pack f f f;
#X text 804 387 d0_sq;
#X obj 328 78 t b l;
#X text 761 387 di_sq;
#X text 413 387 A[i];
#X obj 345 183 t f b f;
#X msg 725 324 get \$1;
#X obj 756 346 list store;
#X obj 487 409 -;
#X obj 487 430 -;
#X obj 487 451 +;
#X obj 426 465 t a;
#X obj 415 141 s \$0-reset;
#X obj 414 444 r \$0-reset;
#X obj 328 491 t a a;
#X obj 328 512 list;
#X obj 466 507 list;
#X obj 568 485 t a;
#X obj 556 464 r \$0-reset;
#X text 354 781 det;
#X obj 469 703 *;
#X obj 328 587 unpack f f f f f f f f f;
#X obj 469 724 -;
#X obj 496 703 *;
#X obj 328 740 *;
#X obj 410 661 *;
#X obj 438 661 *;
#X obj 410 682 -;
#X obj 395 703 *;
#X obj 328 761 -;
#X obj 328 782 +;
#X obj 356 661 *;
#X obj 371 619 *;
#X obj 371 640 -;
#X obj 398 619 *;
#X obj 328 803 t b a;
#X obj 90 693 /;
#X obj 211 582 *;
#X obj 90 466 unpack f f f f f f f f f;
#X obj 211 603 -;
#X obj 238 582 *;
#X obj 90 619 *;
#X obj 172 540 *;
#X obj 199 540 *;
#X obj 172 561 -;
#X obj 157 582 *;
#X obj 90 640 -;
#X obj 90 661 +;
#X obj 118 540 *;
#X obj 133 498 *;
#X obj 133 519 -;
#X obj 160 498 *;
#X obj 90 154 until;
#X obj 90 175 f;
#X obj 117 175 + 1;
#X obj 328 824 s \$0-solve;
#X obj 71 91 r \$0-solve;
#X obj 90 352 list;
#X msg 129 154 0;
#X obj 90 373 unpack f f f f f f f f f;
#X obj 90 445 pack f f f f f f f f f, f 24;
#X obj 46 313 unpack f f f;
#X obj 126 313 unpack f f f;
#X obj 206 313 unpack f f f;
#X obj 107 229 list;
#X obj 107 250 list prepend;
#X obj 107 271 route 0 1 2;
#X obj 171 724 t a;
#X obj 159 703 r \$0-reset;
#X obj 71 745 list;
#X text 116 660 det_i;
#X obj 75 413 f;
#X obj 90 196 t b b f b;
#X obj 328 545 t a a;
#X text 496 505 b;
#X text 358 511 A;
#X obj 756 367 pow 2;
#X msg 384 141 0;
#X obj 345 253 + 1;
#X obj 345 465 list prepend;
#X obj 487 485 list prepend;
#X obj 90 724 list prepend;
#X obj 71 786 outlet;
#X text 317 570 _00_01_02_10_11_12_20_21_22;
#X text 364 77 distances;
#X msg 345 120 3;
#X obj 328 99 t a a a a;
#X msg 90 133 3;
#X obj 71 112 t a a a;
#X text 181 293 replace matrix columns;
#X obj 639 210 list split 3;
#X msg 720 205 clear;
#X obj 673 231 t a;
#X text 569 94 default tetrahedron with edge length 1, f 11;
#X msg 639 94 0 0.57735 -0.204124 -0.5 -0.288675 -0.204124 0.5 -0.288675 -0.204124 0 0 0.612372 \;, f 24;
#X obj 639 53 loadbang;
#X obj 826 89 f \$1;
#X obj 826 110 sel 0;
#X msg 826 131 1000;
#X obj 639 252 text insert \$0-tetra;
#X obj 720 226 text define \$0-tetra;
#X obj 639 189 t a b;
#X obj 826 152 t a;
#X obj 639 73 t b b;
#X obj 328 57 route list positions edge reset;
#X obj 697 52 t b a;
#N canvas 92 117 357 329 list_mul 0;
#X obj 29 47 inlet;
#X obj 130 47 inlet;
#X obj 173 47 loadbang;
#X obj 130 121 f \$1;
#X obj 75 183 *;
#X obj 75 204 list prepend;
#X obj 158 204 t a;
#X obj 29 248 list;
#X obj 29 68 t b a b;
#X obj 29 268 outlet;
#X obj 48 121 list split 1;
#X obj 61 141 list;
#X obj 48 162 t b a;
#X connect 0 0 8 0;
#X connect 1 0 3 0;
#X connect 2 0 3 0;
#X connect 3 0 4 1;
#X connect 4 0 5 0;
#X connect 5 0 6 0;
#X connect 5 0 7 1;
#X connect 6 0 5 1;
#X connect 7 0 9 0;
#X connect 8 0 7 0;
#X connect 8 1 10 0;
#X connect 8 2 5 1;
#X connect 10 0 12 0;
#X connect 10 1 11 1;
#X connect 11 0 10 0;
#X connect 12 0 11 0;
#X connect 12 1 4 0;
#X restore 639 168 pd list_mul;
#X text 576 574 find source location by using cramer's rule on equations of 4 mic measurements, f 40;
#X text 761 806 Ben Wesch \, 2025;
#X connect 0 0 1 0;
#X connect 1 0 2 0;
#X connect 1 0 34 0;
#X connect 2 0 1 1;
#X connect 3 0 6 0;
#X connect 4 0 5 0;
#X connect 5 0 7 0;
#X connect 6 0 8 0;
#X connect 6 0 11 0;
#X connect 6 1 9 0;
#X connect 6 1 12 0;
#X connect 6 2 10 0;
#X connect 6 2 13 0;
#X connect 7 0 8 1;
#X connect 7 0 14 0;
#X connect 7 1 9 1;
#X connect 7 1 15 0;
#X connect 7 2 10 1;
#X connect 7 2 16 0;
#X connect 8 0 23 0;
#X connect 9 0 24 0;
#X connect 10 0 25 0;
#X connect 11 0 21 0;
#X connect 12 0 21 1;
#X connect 13 0 22 1;
#X connect 14 0 18 0;
#X connect 15 0 18 1;
#X connect 16 0 19 1;
#X connect 18 0 19 0;
#X connect 19 0 37 1;
#X connect 21 0 22 0;
#X connect 22 0 37 0;
#X connect 23 0 29 0;
#X connect 24 0 29 1;
#X connect 25 0 29 2;
#X connect 26 0 39 1;
#X connect 27 0 133 0;
#X connect 28 0 26 0;
#X connect 28 1 36 1;
#X connect 29 0 108 0;
#X connect 31 0 115 0;
#X connect 31 1 28 0;
#X connect 34 0 107 0;
#X connect 34 1 4 0;
#X connect 34 2 35 0;
#X connect 35 0 36 0;
#X connect 36 0 105 0;
#X connect 37 0 38 0;
#X connect 38 0 39 0;
#X connect 39 0 109 0;
#X connect 40 0 108 1;
#X connect 42 0 108 1;
#X connect 43 0 44 0;
#X connect 43 1 45 0;
#X connect 44 0 102 0;
#X connect 45 0 93 1;
#X connect 46 0 109 1;
#X connect 47 0 109 1;
#X connect 49 0 51 0;
#X connect 50 0 53 0;
#X connect 50 1 57 0;
#X connect 50 2 60 0;
#X connect 50 3 54 0;
#X connect 50 3 61 0;
#X connect 50 4 49 0;
#X connect 50 4 63 0;
#X connect 50 5 52 0;
#X connect 50 5 55 0;
#X connect 50 6 55 1;
#X connect 50 6 63 1;
#X connect 50 7 52 1;
#X connect 50 7 61 1;
#X connect 50 8 49 1;
#X connect 50 8 54 1;
#X connect 51 0 53 1;
#X connect 52 0 51 1;
#X connect 53 0 58 0;
#X connect 54 0 56 0;
#X connect 55 0 56 1;
#X connect 56 0 57 1;
#X connect 57 0 58 1;
#X connect 58 0 59 0;
#X connect 59 0 64 0;
#X connect 60 0 59 1;
#X connect 61 0 62 0;
#X connect 62 0 60 1;
#X connect 63 0 62 1;
#X connect 64 0 84 0;
#X connect 64 1 65 1;
#X connect 65 0 110 0;
#X connect 66 0 68 0;
#X connect 67 0 70 0;
#X connect 67 1 74 0;
#X connect 67 2 77 0;
#X connect 67 3 71 0;
#X connect 67 3 78 0;
#X connect 67 4 66 0;
#X connect 67 4 80 0;
#X connect 67 5 69 0;
#X connect 67 5 72 0;
#X connect 67 6 72 1;
#X connect 67 6 80 1;
#X connect 67 7 69 1;
#X connect 67 7 78 1;
#X connect 67 8 66 1;
#X connect 67 8 71 1;
#X connect 68 0 70 1;
#X connect 69 0 68 1;
#X connect 70 0 75 0;
#X connect 71 0 73 0;
#X connect 72 0 73 1;
#X connect 73 0 74 1;
#X connect 74 0 75 1;
#X connect 75 0 76 0;
#X connect 76 0 65 0;
#X connect 77 0 76 1;
#X connect 78 0 79 0;
#X connect 79 0 77 1;
#X connect 80 0 79 1;
#X connect 81 0 82 0;
#X connect 82 0 83 0;
#X connect 82 0 101 0;
#X connect 83 0 82 1;
#X connect 85 0 117 0;
#X connect 86 0 88 0;
#X connect 87 0 82 1;
#X connect 88 0 100 1;
#X connect 88 1 89 1;
#X connect 88 2 89 2;
#X connect 88 3 89 3;
#X connect 88 4 89 4;
#X connect 88 5 89 5;
#X connect 88 6 89 6;
#X connect 88 7 89 7;
#X connect 88 8 89 8;
#X connect 89 0 67 0;
#X connect 90 0 100 1;
#X connect 90 1 89 3;
#X connect 90 2 89 6;
#X connect 91 0 89 1;
#X connect 91 1 89 4;
#X connect 91 2 89 7;
#X connect 92 0 89 2;
#X connect 92 1 89 5;
#X connect 92 2 89 8;
#X connect 93 0 94 0;
#X connect 94 0 95 0;
#X connect 95 0 90 0;
#X connect 95 1 91 0;
#X connect 95 2 92 0;
#X connect 96 0 110 1;
#X connect 97 0 110 1;
#X connect 98 0 111 0;
#X connect 100 0 89 0;
#X connect 101 0 100 0;
#X connect 101 1 93 0;
#X connect 101 2 94 1;
#X connect 101 3 86 0;
#X connect 102 0 50 0;
#X connect 102 1 86 1;
#X connect 105 0 38 1;
#X connect 106 0 1 1;
#X connect 107 0 3 0;
#X connect 108 0 40 0;
#X connect 108 0 44 1;
#X connect 109 0 46 0;
#X connect 109 0 45 1;
#X connect 110 0 96 0;
#X connect 110 0 98 1;
#X connect 114 0 0 0;
#X connect 115 0 43 0;
#X connect 115 1 114 0;
#X connect 115 2 106 0;
#X connect 115 3 41 0;
#X connect 116 0 81 0;
#X connect 117 0 98 0;
#X connect 117 1 116 0;
#X connect 117 2 87 0;
#X connect 119 0 128 0;
#X connect 119 1 121 0;
#X connect 120 0 129 0;
#X connect 121 0 119 0;
#X connect 123 0 135 0;
#X connect 124 0 132 0;
#X connect 125 0 126 0;
#X connect 126 0 127 0;
#X connect 126 1 131 0;
#X connect 127 0 131 0;
#X connect 130 0 119 0;
#X connect 130 1 120 0;
#X connect 131 0 135 1;
#X connect 132 0 123 0;
#X connect 132 1 125 0;
#X connect 133 0 31 0;
#X connect 133 1 130 0;
#X connect 133 3 132 0;
#X connect 133 3 134 0;
#X connect 134 0 132 0;
#X connect 134 1 125 0;
#X connect 135 0 130 0;
