#N canvas 467 120 1092 884 10;
#X listbox 58 712 39 0 0 0 - - - 16;
#X obj 58 76 vsl 16 136 -10000 10000 0 0 empty empty empty 0 -9 0 10 #fcfcfc #000000 #000000 0 1;
#X text 31 66 10m;
#X text 25 207 -10m;
#X obj 108 76 vsl 16 136 -10000 10000 0 0 empty empty empty 0 -9 0 10 #fcfcfc #000000 #000000 0 1;
#X obj 158 76 vsl 16 136 -10000 10000 0 0 empty empty empty 0 -9 0 10 #fcfcfc #000000 #000000 0 1;
#X obj 108 261 t b f;
#X obj 158 240 t b f;
#X obj 58 282 pack f f f;
#X floatatom 58 220 7 0 0 0 - - - 0;
#X floatatom 108 220 7 0 0 0 - - - 0;
#X floatatom 158 220 7 0 0 0 - - - 0;
#X text 121 662 <-- edge length via arg (default is 1000mm);
#X listbox 58 605 39 0 0 0 - - - 0;
#X listbox 789 521 39 0 0 0 - - - 0;
#X obj 58 344 t a a a a, f 12;
#X obj 58 481 unpack f f f;
#X obj 127 370 unpack f f f;
#X obj 58 543 pack f f f f;
#X obj 104 407 unpack f f f;
#X obj 81 444 unpack f f f;
#X obj 789 429 list prepend relative;
#X obj 789 450 list trim;
#X text 787 407 relative distances;
#X obj 796 492 print TDOA result;
#X obj 65 683 print TOA result;
#X obj 789 471 tetra2pos;
#X obj 58 662 tetra2pos;
#X obj 58 522 +;
#X obj 81 522 +;
#X obj 104 522 +;
#X obj 127 522 +;
#X obj 557 486 hsl 136 16 -1000 1000 0 0 empty empty empty -2 -8 0 10 #fcfcfc #000000 #000000 0 1;
#X floatatom 554 507 5 0 0 0 - - - 0;
#X text 590 505 offset to test TDOA;
#X text 590 519 (time difference of arrival);
#X obj 554 444 loadbang;
#N canvas 63 88 450 349 error 0;
#X obj 63 46 inlet;
#X obj 235 46 inlet;
#X obj 63 67 unpack f f f;
#X obj 235 67 unpack f f f;
#X obj 63 138 -;
#X obj 97 138 -;
#X obj 132 138 -;
#X obj 63 219 +;
#X obj 63 240 +;
#X obj 63 291 outlet;
#X obj 63 159 abs;
#X obj 97 159 abs;
#X obj 132 159 abs;
#X obj 63 266 sqrt;
#X obj 132 189 pow 2;
#X obj 97 189 pow 2;
#X obj 63 189 pow 2;
#X connect 0 0 2 0;
#X connect 1 0 3 0;
#X connect 2 0 4 0;
#X connect 2 1 5 0;
#X connect 2 2 6 0;
#X connect 3 0 4 1;
#X connect 3 1 5 1;
#X connect 3 2 6 1;
#X connect 4 0 10 0;
#X connect 5 0 11 0;
#X connect 6 0 12 0;
#X connect 7 0 8 0;
#X connect 8 0 13 0;
#X connect 10 0 16 0;
#X connect 11 0 15 0;
#X connect 12 0 14 0;
#X connect 13 0 9 0;
#X connect 14 0 8 1;
#X connect 15 0 7 1;
#X connect 16 0 7 0;
#X restore 58 767 pd error;
#X obj 61 788 hsl 136 16 0 1000 0 0 empty empty empty -2 -8 0 10 #fcfcfc #000000 #000000 0 1;
#X text 202 789 1000mm;
#X obj 58 323 t l l;
#X floatatom 58 809 16 0 0 0 - - - 16;
#X obj 792 597 hsl 136 16 0 1000 0 0 empty empty empty -2 -8 0 10 #fcfcfc #000000 #000000 0 1;
#X text 933 598 1000mm;
#X floatatom 789 618 5 0 0 0 - - - 0;
#X obj 138 339 s \$0-pos;
#X obj 103 746 r \$0-pos;
#N canvas 63 88 450 349 error 0;
#X obj 63 46 inlet;
#X obj 235 46 inlet;
#X obj 63 67 unpack f f f;
#X obj 235 67 unpack f f f;
#X obj 63 138 -;
#X obj 97 138 -;
#X obj 132 138 -;
#X obj 63 219 +;
#X obj 63 240 +;
#X obj 63 291 outlet;
#X obj 63 159 abs;
#X obj 97 159 abs;
#X obj 132 159 abs;
#X obj 63 266 sqrt;
#X obj 132 189 pow 2;
#X obj 97 189 pow 2;
#X obj 63 189 pow 2;
#X connect 0 0 2 0;
#X connect 1 0 3 0;
#X connect 2 0 4 0;
#X connect 2 1 5 0;
#X connect 2 2 6 0;
#X connect 3 0 4 1;
#X connect 3 1 5 1;
#X connect 3 2 6 1;
#X connect 4 0 10 0;
#X connect 5 0 11 0;
#X connect 6 0 12 0;
#X connect 7 0 8 0;
#X connect 8 0 13 0;
#X connect 10 0 16 0;
#X connect 11 0 15 0;
#X connect 12 0 14 0;
#X connect 13 0 9 0;
#X connect 14 0 8 1;
#X connect 15 0 7 1;
#X connect 16 0 7 0;
#X restore 789 576 pd error;
#X obj 834 555 r \$0-pos;
#X obj 58 240 f;
#X obj 108 240 f;
#X msg 200 58 0;
#X obj 231 58 loadbang;
#X msg 104 634 print;
#X msg 512 335 positions 0 577.35 -204.124 -500 -288.675 -204.124 500 -288.675 -204.124 0 0 612.372, f 85;
#X msg 512 277 positions -500 -288.675 -204.124 500 -288.675 -204.124 0 0 612.372 0 577.35 -204.124, f 85;
#X msg 512 218 positions 500 -288.675 -204.124 0 0 612.372 0 577.35 -204.124 -500 -288.675 -204.124, f 85;
#X msg 512 161 positions 0 0 612.372 0 577.35 -204.124 -500 -288.675 -204.124 500 -288.675 -204.124, f 85;
#X text 509 83 0 577.35 -204.124;
#X text 510 100 -500 -288.675 -204.124;
#X text 511 118 500 -288.675 -204.124;
#X text 510 137 0 0 612.372;
#X obj 58 497 expr sqrt(pow($f1 \, 2) + pow($f2-577.35 \, 2) + pow($f3+204.124 \, 2)), f 65;
#X listbox 58 564 39 0 0 0 - - - 0;
#X obj 58 584 list_rotate 1;
#X obj 200 79 bng 60 250 50 0 empty empty empty 0 -8 0 10 #fcfcfc #000000 #000000;
#X msg 512 177 3;
#X msg 512 234 2;
#X msg 512 293 1;
#X msg 512 351 0;
#X obj 453 177 t b;
#X obj 413 193 del 20;
#X listbox 462 712 39 0 0 0 - - - 16;
#X msg 108 43 3000;
#X msg 58 43 -3000;
#X obj 81 460 expr sqrt(pow($f1+500 \, 2) + pow($f2+288.675 \, 2) + pow($f3+204.124 \, 2)), f 70;
#X obj 103 423 expr sqrt(pow($f1-500 \, 2) + pow($f2+288.675 \, 2) + pow($f3+204.124 \, 2)), f 70;
#X obj 58 261 * -1;
#X obj 58 303 list_rotate 0;
#X obj 127 386 expr sqrt(pow($f1+10 \, 2) + pow($f2 \, 2) + pow($f3-612.372 \, 2)), f 61;
#X msg 158 43 -3000;
#X msg 554 465 0;
#X connect 0 0 37 0;
#X connect 1 0 9 0;
#X connect 4 0 10 0;
#X connect 5 0 11 0;
#X connect 6 0 49 0;
#X connect 6 1 8 1;
#X connect 7 0 50 0;
#X connect 7 1 8 2;
#X connect 8 0 78 0;
#X connect 9 0 49 0;
#X connect 10 0 50 0;
#X connect 11 0 7 0;
#X connect 13 0 21 0;
#X connect 13 0 27 0;
#X connect 14 0 47 0;
#X connect 15 0 16 0;
#X connect 15 1 20 0;
#X connect 15 2 19 0;
#X connect 15 3 17 0;
#X connect 16 0 62 0;
#X connect 16 1 62 1;
#X connect 16 2 62 2;
#X connect 17 0 79 0;
#X connect 17 1 79 1;
#X connect 17 2 79 2;
#X connect 18 0 63 0;
#X connect 19 0 76 0;
#X connect 19 1 76 1;
#X connect 19 2 76 2;
#X connect 20 0 75 0;
#X connect 20 1 75 1;
#X connect 20 2 75 2;
#X connect 21 0 22 0;
#X connect 22 0 26 0;
#X connect 26 0 14 0;
#X connect 26 0 24 0;
#X connect 27 0 0 0;
#X connect 27 0 25 0;
#X connect 28 0 18 0;
#X connect 29 0 18 1;
#X connect 30 0 18 2;
#X connect 31 0 18 3;
#X connect 32 0 33 0;
#X connect 33 0 31 1;
#X connect 33 0 30 1;
#X connect 33 0 29 1;
#X connect 33 0 28 1;
#X connect 36 0 81 0;
#X connect 37 0 38 0;
#X connect 38 0 41 0;
#X connect 40 0 15 0;
#X connect 40 1 45 0;
#X connect 42 0 44 0;
#X connect 46 0 37 1;
#X connect 47 0 42 0;
#X connect 48 0 47 1;
#X connect 49 0 77 0;
#X connect 50 0 6 0;
#X connect 51 0 5 0;
#X connect 51 0 4 0;
#X connect 51 0 1 0;
#X connect 52 0 51 0;
#X connect 53 0 27 0;
#X connect 54 0 27 0;
#X connect 54 0 69 0;
#X connect 54 0 70 0;
#X connect 54 0 26 0;
#X connect 55 0 27 0;
#X connect 55 0 68 0;
#X connect 55 0 70 0;
#X connect 55 0 26 0;
#X connect 56 0 27 0;
#X connect 56 0 67 0;
#X connect 56 0 70 0;
#X connect 56 0 26 0;
#X connect 57 0 27 0;
#X connect 57 0 66 0;
#X connect 57 0 70 0;
#X connect 57 0 26 0;
#X connect 62 0 28 0;
#X connect 63 0 64 0;
#X connect 64 0 13 0;
#X connect 65 0 5 0;
#X connect 66 0 64 1;
#X connect 67 0 64 1;
#X connect 68 0 64 1;
#X connect 69 0 64 1;
#X connect 70 0 71 0;
#X connect 71 0 65 0;
#X connect 73 0 1 0;
#X connect 73 0 4 0;
#X connect 73 0 5 0;
#X connect 74 0 1 0;
#X connect 75 0 29 0;
#X connect 76 0 30 0;
#X connect 77 0 8 0;
#X connect 78 0 40 0;
#X connect 78 0 72 0;
#X connect 79 0 31 0;
#X connect 80 0 5 0;
#X connect 81 0 32 0;
