#N canvas 470 161 1122 781 10;
#X obj 197 303 bng 16 250 50 0 empty empty empty 0 -8 0 10 #fcfcfc #000000 #000000;
#X obj 197 282 threshold~ 0.5 100 0.5 100;
#X obj 64 453 dac~;
#X obj 64 431 *~ 0.1;
#X msg 62 121 range 21;
#X obj 50 230 quatkram/urn~ 21;
#X msg 76 145 reset;
#X obj 108 283 snapshot~;
#X floatatom 108 304 5 0 0 0 - - - 0;
#X obj 118 263 bang~;
#X floatatom 146 123 5 1 10000 0 - - - 0;
#X obj 64 330 /~;
#X msg 146 161 range \$1;
#X obj 145 77 loadbang;
#X obj 64 372 *~ 2;
#X obj 64 402 -~ 1;
#X text 154 227 range is creation arg;
#X text 241 183 seed on signal rate;
#X text 204 260 impulse on reset;
#X obj 249 395 tabwrite~ vis;
#N canvas 0 22 450 278 (subpatch) 0;
#X array vis 1000 float 2;
#X coords 0 1 999 -1 1000 200 1 0 0;
#X restore 59 529 graph;
#X obj 249 332 tgl 16 0 empty empty empty 0 -8 0 10 #fcfcfc #000000 #000000 0 1;
#X obj 249 353 metro 200;
#X msg 145 100 491;
#X obj 77 302 - 1;
#X obj 199 181 sig~ 0;
#X floatatom 199 125 5 0 10000 0 - - - 0;
#X msg 80 172 seed 1;
#N canvas 92 117 312 399 impulse~ 0;
#X obj 44 302 outlet~;
#X obj 44 70 phasor~;
#X obj 44 142 *~ -2;
#X obj 44 166 +~ 1;
#X obj 44 118 wrap~;
#X obj 44 94 +~;
#X obj 44 258 clip~ 0 1;
#X obj 43 32 inlet~;
#X obj 44 214 rzero~ 1;
#X connect 1 0 5 0;
#X connect 2 0 3 0;
#X connect 3 0 8 0;
#X connect 4 0 2 0;
#X connect 5 0 4 0;
#X connect 6 0 0 0;
#X connect 7 0 1 0;
#X connect 8 0 6 0;
#X restore 47 92 pd impulse~;
#X obj 49 35 hsl 136 16 48 48000 1 0 empty empty empty -2 -8 0 10 #fcfcfc #000000 #000000 0 1;
#X floatatom 46 56 5 0 0 0 - - - 0;
#X connect 1 0 0 0;
#X connect 3 0 2 0;
#X connect 3 0 2 1;
#X connect 4 0 5 0;
#X connect 5 0 7 0;
#X connect 5 0 11 0;
#X connect 5 1 1 0;
#X connect 6 0 5 0;
#X connect 7 0 8 0;
#X connect 9 0 7 0;
#X connect 10 0 12 0;
#X connect 10 0 24 0;
#X connect 11 0 14 0;
#X connect 12 0 5 0;
#X connect 13 0 23 0;
#X connect 14 0 15 0;
#X connect 15 0 3 0;
#X connect 15 0 19 0;
#X connect 21 0 22 0;
#X connect 22 0 19 0;
#X connect 23 0 10 0;
#X connect 24 0 11 1;
#X connect 25 0 5 1;
#X connect 26 0 25 0;
#X connect 27 0 5 0;
#X connect 28 0 5 0;
#X connect 29 0 30 0;
#X connect 30 0 28 0;
