#N canvas 248 127 1157 787 12;
#X obj 173 56 hsl 162 19 2 20000 1 0 empty empty empty -2 -10 0 12 #fcfcfc #000000 #000000 0 1;
#X obj 345 56 hsl 162 19 1 24000 1 0 empty empty empty -2 -10 0 12 #fcfcfc #000000 #000000 0 1;
#X floatatom 342 80 8 0 0 0 - - - 0;
#X floatatom 170 80 8 0 0 0 - - - 0;
#X obj 60 320 output~;
#X obj 131 173 lop~ 8;
#X text 92 262 arguments: buffer size in ms \, flag -d for 2 additional outlets with delay for each channel in samples;
#X obj 342 173 expr~ $v1 > 0.5;
#X obj 342 197 rzero~ 1;
#X obj 342 221 abs~;
#X obj 342 125 lop~ 0.2;
#X obj 342 149 phasor~ 1600;
#X text 520 267 -r parameter for silent delay reset;
#X obj 229 395 show~ -width 800 -height 300;
#X msg 315 371 width 800 \, height 300;
#X obj 475 346 tgl 19 0 empty empty empty 0 -10 0 12 #fcfcfc #000000 #000000 0 1;
#X msg 475 371 pause \$1;
#X text 520 247 -c <float> parameter for cooldown;
#X text 520 227 -s <float> parameter for maxstep;
#X obj 59 173 osc~ 1200;
#X obj 62 32 hsl 162 19 2 20000 1 0 empty empty empty -2 -10 0 12 #fcfcfc #000000 #000000 0 1;
#X floatatom 59 56 8 0 0 0 - - - 0;
#X msg 223 173 maxstep 3;
#X obj 60 240 zcflip~ 2000 -d -r;
#X obj 715 65 block~ 512;
#X msg 223 149 cooldown 0.1;
#X obj 229 371 snake~ in 5;
#X obj 131 149 osc~ 4000;
#X connect 0 0 3 0;
#X connect 1 0 2 0;
#X connect 2 0 10 0;
#X connect 3 0 5 1;
#X connect 5 0 23 1;
#X connect 7 0 8 0;
#X connect 8 0 9 0;
#X connect 9 0 23 2;
#X connect 9 0 26 4;
#X connect 10 0 11 0;
#X connect 11 0 7 0;
#X connect 14 0 13 0;
#X connect 15 0 16 0;
#X connect 16 0 13 0;
#X connect 19 0 23 0;
#X connect 20 0 21 0;
#X connect 21 0 19 0;
#X connect 22 0 23 0;
#X connect 23 0 4 0;
#X connect 23 0 26 0;
#X connect 23 0 26 2;
#X connect 23 1 4 0;
#X connect 23 1 26 1;
#X connect 23 1 26 2;
#X connect 23 2 26 3;
#X connect 25 0 23 0;
#X connect 26 0 13 0;
#X connect 27 0 5 0;
