#N canvas 493 209 491 349 10;
#X obj 61 209 snapshot~;
#X obj 61 106 zc~;
#X obj 225 209 snapshot~;
#X obj 341 193 bang~;
#X obj 61 59 osc~ 1;
#X msg 339 146 reset;
#X obj 61 162 faccwrap~ 0 127;
#X obj 225 162 faccwrap~ 0 127;
#X obj 64 230 hsl 136 16 0 127 0 0 empty empty empty -2 -8 0 10 #fcfcfc #000000 #000000 0 1;
#X obj 228 230 hsl 136 16 0 127 0 0 empty empty empty -2 -8 0 10 #fcfcfc #000000 #000000 0 1;
#X floatatom 61 251 5 0 0 0 - - - 0;
#X floatatom 225 251 5 0 0 0 - - - 0;
#X text 58 289 outputs upward zerocrossings on left and downwards on right;
#X connect 0 0 8 0;
#X connect 1 0 6 0;
#X connect 1 1 7 0;
#X connect 2 0 9 0;
#X connect 3 0 2 0;
#X connect 3 0 0 0;
#X connect 4 0 1 0;
#X connect 5 0 6 0;
#X connect 5 0 7 0;
#X connect 6 0 0 0;
#X connect 7 0 2 0;
#X connect 8 0 10 0;
#X connect 9 0 11 0;
